<?xml version="1.0" encoding="UTF-8" standalone="no"?>
<!-- Created with Inkscape (http://www.inkscape.org/) -->

<svg
   width="210mm"
   height="297mm"
   viewBox="0 0 210 297"
   version="1.1"
   id="svg1"
   sodipodi:docname="civCard.svg"
   inkscape:version="1.4.2 (ebf0e940d0, 2025-05-08)"
   xmlns:inkscape="http://www.inkscape.org/namespaces/inkscape"
   xmlns:sodipodi="http://sodipodi.sourceforge.net/DTD/sodipodi-0.dtd"
   xmlns="http://www.w3.org/2000/svg"
   xmlns:svg="http://www.w3.org/2000/svg">
  <sodipodi:namedview
     id="namedview1"
     pagecolor="#ffffff"
     bordercolor="#000000"
     borderopacity="0.25"
     inkscape:showpageshadow="2"
     inkscape:pageopacity="0.0"
     inkscape:pagecheckerboard="0"
     inkscape:deskcolor="#d1d1d1"
     inkscape:document-units="mm"
     inkscape:zoom="0.43264376"
     inkscape:cx="-290.07699"
     inkscape:cy="448.40586"
     inkscape:window-width="1920"
     inkscape:window-height="1008"
     inkscape:window-x="0"
     inkscape:window-y="0"
     inkscape:window-maximized="1"
     inkscape:current-layer="layer1" />
  <defs
     id="defs1">
    <linearGradient
       id="swatch1"
       inkscape:swatch="solid">
      <stop
         style="stop-color:#000000;stop-opacity:1;"
         offset="0"
         id="stop1" />
    </linearGradient>
  </defs>
  <g
     inkscape:label="Слой 1"
     inkscape:groupmode="layer"
     id="layer1">
    <rect
       style="fill:#000000;stroke-width:0.264583"
       id="rect1"
       width="200"
       height="300"
       x="0"
       y="-8.8817842e-16"
       sodipodi:type="rect"
       rx="15"
       ry="15" />
    <rect
       style="fill:#225145;fill-opacity:1;stroke-width:0.265;stroke-dasharray:none"
       id="rect1-2"
       width="180"
       x="10"
       y="10"
       sodipodi:type="rect"
       rx="10"
       ry="10"
       height="280" />
    <rect
       style="fill:#0c100f;fill-opacity:1;stroke-width:0.240756;stroke-dasharray:none"
       id="rect1-2-2"
       width="160"
       x="20"
       y="20"
       sodipodi:type="rect"
       rx="8.8888893"
       ry="9.2857141"
       height="260" />
    <g
       id="g58"
       transform="matrix(0.26458333,0,0,0.26458333,-259.60078,54.687373)"
       style="clip-rule:evenodd;fill-rule:evenodd;image-rendering:optimizeQuality;shape-rendering:geometricPrecision;text-rendering:geometricPrecision" />
    <g
       id="g64"
       transform="matrix(0.36005994,0,0,0.36005994,-334.82234,11.346393)"
       style="clip-rule:evenodd;fill-rule:evenodd;image-rendering:optimizeQuality;shape-rendering:geometricPrecision;text-rendering:geometricPrecision" />
    <g
       id="g100"
       transform="matrix(0.36005994,0,0,0.36005994,-334.82234,11.346393)"
       style="clip-rule:evenodd;fill-rule:evenodd;image-rendering:optimizeQuality;shape-rendering:geometricPrecision;text-rendering:geometricPrecision" />
    <g
       id="g101"
       transform="matrix(0.36005994,0,0,0.36005994,-334.82234,11.346393)"
       style="clip-rule:evenodd;fill-rule:evenodd;image-rendering:optimizeQuality;shape-rendering:geometricPrecision;text-rendering:geometricPrecision" />
    <g
       id="g105"
       transform="matrix(0.36005994,0,0,0.36005994,-334.82234,11.346393)"
       style="clip-rule:evenodd;fill-rule:evenodd;image-rendering:optimizeQuality;shape-rendering:geometricPrecision;text-rendering:geometricPrecision" />
    <g
       id="g1"
       transform="matrix(1.0005,0,0,0.98309528,160.23751,1.1982624)">
      <path
         style="clip-rule:evenodd;opacity:1;fill-rule:evenodd;stroke:#000000;stroke-width:56.6929;stroke-linecap:square;stroke-linejoin:miter;stroke-dasharray:none;stroke-opacity:1;paint-order:stroke fill markers;image-rendering:optimizeQuality;shape-rendering:geometricPrecision;text-rendering:geometricPrecision"
         fill="#0a494c"
         d="m 1050.9941,692.12681 c 19.058,77.93618 26.4998,89.37897 25.2479,173.72324 -25.9819,27.38243 -75.9306,16.2859 -90.09174,17.512 -0.17876,-32.78762 -8.70486,-92.35239 -17.04249,-135.38761 -4.99714,-25.79303 -16.39239,-40.00684 -14.17107,-52.13237 -32.62216,22.49655 -15.83223,142.67819 -15.64986,192.00967 -22.1753,0.127 -432.37172,2.00616 -432.37172,2.00616 -4.73127,-0.7284 -4.54297,-113.26278 -9.3729,-173.5986 -0.5046,-6.30342 -1.06396,-12.03712 -1.68943,-17.0141 -1.67639,-3.08654 -3.26329,-5.03174 -4.74522,-6.11816 -7.58079,-5.55759 -12.41432,11.35784 -12.42519,12.92245 -7.86021,66.13938 -1.93337,123.92938 -1.70611,183.80841 -32.15765,1.8215 -57.7378,-13.09048 -68.39799,-43.61216 0.68058,-65.22376 -2.71577,-123.76687 1.16689,-202.28331 2.26037,-45.70992 50.54483,-100.31513 67.3521,-111.69276 37.22873,-19.57162 65.62594,-30.05043 98.66209,-44.90826 2.18418,0.81787 3.9982,2.17873 5.44343,4.08257 11.35771,22.69908 27.91525,40.61748 49.67126,53.75383 27.97105,17.79183 58.36305,29.13185 91.17739,34.02141 31.92297,3.86619 62.31498,-1.12407 91.17738,-14.96942 8.03314,-5.02701 15.06332,-11.15086 21.09328,-18.37156 6.3307,-12.2028 12.22729,-24.45051 17.69113,-36.74313 24.95811,10.77934 50.13396,20.98577 75.52754,30.61927 60.39506,21.89142 105.81223,99.66976 123.45333,152.37243 z"
         id="path58"
         sodipodi:nodetypes="cccscccscscccscccccccccc"
         transform="matrix(0.26458333,0,0,0.26458333,-259.60078,54.687372)" />
      <path
         style="clip-rule:evenodd;opacity:1;fill-rule:evenodd;stroke-width:42.00588028;stroke-dasharray:none;image-rendering:optimizeQuality;shape-rendering:geometricPrecision;text-rendering:geometricPrecision;stroke:#000000;stroke-opacity:1;paint-order:stroke fill markers"
         fill="#e9ad75"
         d="m 791.5,251.5 c 11.873,1.975 24.54,3.142 38,3.5 12.05,0.817 22.717,0.651 32,-0.5 7.71,-1.626 15.543,-1.959 23.5,-1 0.113,10.081 -0.553,20.081 -2,30 7.596,15.914 15.596,31.58 24,47 0.667,2.667 0.667,5.333 0,8 -1.067,0.691 -2.234,1.191 -3.5,1.5 -11,0.333 -22,0.667 -33,1 -2.488,2.627 -2.48987,3.80867 -0.5,8.5 13.77207,4.90767 8.0503,15.59507 6,19 -0.70427,3.55813 -4.17053,6.65107 -34.5,5.5 -4,3.333 -4,6.667 0,10 10.333,0.333 20.667,0.667 31,1 7.48614,3.39864 0.16412,13.26378 -4.5,18.5 -0.169,8.384 -0.836,16.718 -2,25 -0.989,4.812 -3.156,8.979 -6.5,12.5 -5.443,2.278 -11.11,3.444 -17,3.5 -14.099,-0.582 -27.766,-2.915 -41,-7 -8.552,-3.469 -17.552,-7.469 -27,-12 -53.11382,-7.2108 -20.34393,21.61749 13,43 14.39648,9.61962 22.45112,13.44052 30.34209,19.20561 4.06645,2.97092 -1.96246,13.00914 -7.34209,22.29439 -9.412,12.549 -22.079,19.716 -38,21.5 -20.93838,1.13561 -40.97325,1.34499 -60,-6 C 671.1685,506.45526 661.95333,497.55139 650.00139,482.21177 646.5792,477.81958 646.28635,472.11488 645.5,470.5 c 8.355,-13.414 14.355,-27.747 18,-43 1.37604,0.83282 3.9359,-13.23012 8,-39 -0.02,-1.226 3.27765,-32.0041 5,-36 8.458,4.6 17.458,6.1 27,4.5 2.525,-0.424 4.525,-1.59 6,-3.5 2.62,-3.502 2.62,-7.002 0,-10.5 -6.333,-0.333 -12.667,-0.667 -19,-1 -3.612,-1.139 -6.946,-2.806 -10,-5 -14.977,-13.122 -21.811,-29.622 -20.5,-49.5 2.353,-15.535 11.187,-21.868 26.5,-19 14.458,6.452 25.458,16.786 33,31 1.833,0.333 3.667,0.667 5.5,1 7.408,-0.461 14.741,-1.128 22,-2 1.176,-10.063 2.676,-20.063 4.5,-30 1.333,-7 2.667,-14 4,-21 12.155,1.214 24.155,2.547 36,4 z"
         id="path64"
         sodipodi:nodetypes="cccccccccccccccccccccscccsccccccccccccccccc"
         transform="matrix(0.36005995,0,0,0.36005995,-334.82235,11.346393)" />
      <path
         style="clip-rule:evenodd;opacity:1;fill-rule:evenodd;image-rendering:optimizeQuality;shape-rendering:geometricPrecision;text-rendering:geometricPrecision"
         fill="#0e1515"
         d="m 675.5,277.5 c 9.939,-0.559 17.439,3.441 22.5,12 5.529,8.579 8.196,17.913 8,28 -0.374,0.916 -0.874,1.75 -1.5,2.5 -2.667,0.667 -5.333,0.667 -8,0 -2.165,-8.144 -5.331,-15.977 -9.5,-23.5 -4.035,-5.391 -9.368,-8.057 -16,-8 -1.041,-4.768 0.459,-8.434 4.5,-11 z"
         id="path100"
         transform="matrix(0.36005995,0,0,0.36005995,-334.82235,11.346393)" />
      <path
         style="clip-rule:evenodd;opacity:1;fill-rule:evenodd;image-rendering:optimizeQuality;shape-rendering:geometricPrecision;text-rendering:geometricPrecision"
         fill="#0e1414"
         d="m 840.5,273.5 c 6.821,-0.492 13.488,0.175 20,2 1.597,7.111 0.263,13.611 -4,19.5 -3.202,1.483 -6.536,1.817 -10,1 -7.586,-4.033 -11.419,-10.2 -11.5,-18.5 1.5,-1.969 3.333,-3.302 5.5,-4 z"
         id="path101"
         transform="matrix(0.36005995,0,0,0.36005995,-334.82235,11.346393)" />
      <path
         style="clip-rule:evenodd;fill-rule:evenodd;stroke-width:15.12463515;image-rendering:optimizeQuality;shape-rendering:geometricPrecision;text-rendering:geometricPrecision;stroke:#000000;stroke-opacity:1;stroke-dasharray:none;paint-order:stroke fill markers"
         fill="#cc6818"
         d="m -0.50668375,91.099672 c 0.274009,0.3208 0.634064,0.56097 1.08018,0.72011 0.389953,0.31146 0.44972195,0.67151 0.180028,1.08018 -1.176665,0.72948 -2.43688605,1.26957 -3.78062305,1.62027 -5.920107,1.41143 -11.9212252,2.25181 -18.0030022,2.52042 -13.479923,0.53288 -26.922042,0.0529 -40.32671,-1.44024 -1.452129,-0.25025 -2.892364,-0.55016 -4.320719,-0.90015 8.476884,-1.23645 16.998431,-2.01669 25.564261,-2.34039 13.199437,-0.54009 26.401745,-0.95992 39.60658525,-1.2602 z"
         id="path103" />
      <path
         style="clip-rule:evenodd;opacity:1;fill-rule:evenodd;image-rendering:optimizeQuality;shape-rendering:geometricPrecision;text-rendering:geometricPrecision;paint-order:stroke fill markers;stroke-width:42.00588028;stroke-dasharray:none;stroke:#000000;stroke-opacity:1"
         fill="#cd691a"
         d="m 933.5,198.5 c -0.433,2.887 -1.767,5.387 -4,7.5 -18.984,0.921 -33.318,1.754 -43,2.5 -34.514,1.727 -69.18,3.56 -104,5.5 -48.403,3.133 -95.736,11.967 -142,26.5 -3.388,-0.379 -5.055,-2.379 -5,-6 -3.155,-36.054 8.845,-65.887 36,-89.5 39.318,-26.375 81.652,-32.375 127,-18 45.751,16.21 89.084,37.21 130,63 2.32,2.478 3.986,5.311 5,8.5 z"
         id="path105"
         transform="matrix(0.36005995,0,0,0.36005995,-334.82235,11.346393)" />
    </g>
    <path
       style="fill:#000000;fill-opacity:1;stroke:#000000;stroke-width:25.9761;stroke-dasharray:none;stroke-opacity:1;paint-order:stroke fill markers"
       d="m 329.89692,412.56283 c -2.5121,-3.23409 -13.10538,-13.43237 -17.4616,-16.81049 -6.21157,-4.81687 -14.23658,-9.76204 -21.87027,-13.47688 -3.8662,-1.88145 -6.94732,-3.50295 -6.84692,-3.60335 0.91376,-0.91375 55.9066,-10.79232 56.54206,-10.15686 0.16499,0.165 -1.27536,8.50213 -3.2008,18.52697 -1.92544,10.02484 -3.85563,20.34038 -4.28932,22.92343 -0.43369,2.58305 -0.89674,4.68864 -1.02901,4.6791 -0.13226,-0.01 -0.96213,-0.9464 -1.84414,-2.08192 z"
       id="path1"
       transform="scale(0.26458333)" />
  </g>
</svg>
