<?xml version="1.0" encoding="UTF-8" standalone="no"?>
<!-- Created with Inkscape (http://www.inkscape.org/) -->

<svg
   width="210mm"
   height="297mm"
   viewBox="0 0 210 297"
   version="1.1"
   id="svg1"
   inkscape:version="1.4.2 (ebf0e940d0, 2025-05-08)"
   sodipodi:docname="docCard.svg"
   xmlns:inkscape="http://www.inkscape.org/namespaces/inkscape"
   xmlns:sodipodi="http://sodipodi.sourceforge.net/DTD/sodipodi-0.dtd"
   xmlns="http://www.w3.org/2000/svg"
   xmlns:svg="http://www.w3.org/2000/svg">
  <sodipodi:namedview
     id="namedview1"
     pagecolor="#ffffff"
     bordercolor="#000000"
     borderopacity="0.25"
     inkscape:showpageshadow="2"
     inkscape:pageopacity="0.0"
     inkscape:pagecheckerboard="0"
     inkscape:deskcolor="#d1d1d1"
     inkscape:document-units="mm"
     inkscape:zoom="0.44946359"
     inkscape:cx="-16.686557"
     inkscape:cy="588.47926"
     inkscape:window-width="1920"
     inkscape:window-height="1008"
     inkscape:window-x="0"
     inkscape:window-y="0"
     inkscape:window-maximized="1"
     inkscape:current-layer="g168" />
  <defs
     id="defs1" />
  <g
     inkscape:label="Слой 1"
     inkscape:groupmode="layer"
     id="layer1">
    <rect
       style="fill:#000000;stroke-width:0.264583"
       id="rect1"
       width="200"
       height="300"
       x="0"
       y="0"
       sodipodi:type="rect"
       rx="15"
       ry="15" />
    <rect
       style="fill:#0e3f55;fill-opacity:1;stroke-width:0.265;stroke-dasharray:none"
       id="rect1-2"
       width="180"
       x="10"
       y="10"
       sodipodi:type="rect"
       rx="10"
       ry="10"
       height="280" />
    <rect
       style="fill:#0e181d;fill-opacity:1;stroke-width:0.240756;stroke-dasharray:none"
       id="rect1-2-2"
       width="160"
       x="20"
       y="20"
       sodipodi:type="rect"
       rx="8.8888893"
       ry="9.2857141"
       height="260" />
    <g
       id="g145"
       transform="matrix(0.26458333,0,0,0.26458333,229.76298,-208.28462)"
       style="clip-rule:evenodd;fill-rule:evenodd;image-rendering:optimizeQuality;shape-rendering:geometricPrecision;text-rendering:geometricPrecision" />
    <g
       id="g170"
       transform="matrix(0.26458333,0,0,0.26458333,229.76298,-208.28462)"
       style="clip-rule:evenodd;fill-rule:evenodd;image-rendering:optimizeQuality;shape-rendering:geometricPrecision;text-rendering:geometricPrecision" />
    <g
       id="g171"
       transform="matrix(0.26458333,0,0,0.26458333,229.76298,-208.28462)"
       style="clip-rule:evenodd;fill-rule:evenodd;image-rendering:optimizeQuality;shape-rendering:geometricPrecision;text-rendering:geometricPrecision" />
    <g
       id="g9"
       transform="matrix(0.4330029,0,0,0.42760103,-10.388874,-336.51344)"
       style="clip-rule:evenodd;fill-rule:evenodd;image-rendering:optimizeQuality;shape-rendering:geometricPrecision;text-rendering:geometricPrecision;stroke:none;stroke-opacity:1">
      <path
         style="opacity:1;stroke:none;stroke-opacity:1"
         fill="#0d1515"
         d="m 160.5,1207 c 6.66,-5.33 13.327,-10.66 20,-16 4.564,-4.06 8.564,-8.56 12,-13.5 -2.363,-3.39 -4.196,-7.06 -5.5,-11 -5.554,-6.15 -9.721,-13.15 -12.5,-21 -7.655,-25.08 -11.155,-50.75 -10.5,-77 -6.319,-4.31 -10.986,-9.97 -14,-17 -6.612,-18.97 -2.112,-34.63 13.5,-47 -9.91153,-21.62405 -9.18884,-44.95789 -6,-68 -0.333,-0.667 3.765,-15.783 5.5,-23 1.752,-3.172 3.752,-6.172 6,-9 0.853,-1.625 4.30782,-3.79912 5.45482,-2.84112 5.973,-5.728 9.35118,-9.71988 15.04518,-15.65888 4.359,-0.018 7.93582,-8.21486 17.5,-9.5 10.05406,0.17044 27.17098,1.59426 41.74931,-2.32534 3.14785,-0.84634 8.38647,1.11717 10.49189,2.3989 3.49161,2.1256 7.46594,1.76181 14.25029,-0.39365 1.5704,-0.49893 9.64861,0.30342 16.99828,1.42221 3.09418,0.471 9.71721,-1.03385 14.01023,-1.10212 3.398,0.604 11.85876,1.27606 15.12776,2.33906 0.81754,4.59632 6.12566,2.47802 10.37224,5.66094 0,0 16.56943,6.28574 17.31443,4.79574 4.115,2.448 8.18557,7.70426 8.18557,7.70426 3.282,5.391 8.93118,9.83113 9.98218,16.10713 1.333,2 3.01522,6.08931 4.34822,8.08931 4.092,1.758 2.9286,4.06156 4.1696,8.30356 0.333,-0.667 6.646,11.156 3.5,18 6.0897,26.5751 -16.36732,47.49892 8.5,66 11.11478,14.4313 11.31434,18.0694 11.5,35 -1.28858,12.47 4.74516,18.9262 -18.9933,37.671 -17.89661,10.5164 -25.39963,13.6364 -26.0067,26.829 0.607,10.64 0.607,21.14 0,31.5 -3.12893,12.3946 21.77277,23.3951 40.18359,50.3522 8.42578,17.1768 20.795,41.5795 17.31641,84.6478 -1.887,2.39 -4.387,3.55 -7.5,3.5 -10.758,0.75 -21.425,2.08 -32,4 6.541,6.87 12.707,14.04 18.5,21.5 0.912,3.95 0.245,7.62 -2,11 -33.402,34.73 -66.069,70.07 -98,106 -11.355,13.03 -24.189,24.2 -38.5,33.5 -1.819,0.78 -3.152,0.28 -4,-1.5 3.305,-5.14 6.805,-10.14 10.5,-15 39.898,-42.14 79.565,-84.48 119,-127 0.982,-1.26 1.315,-2.59 1,-4 -8.749,-8.74 -16.749,-18.08 -24,-28 -1.189,-6.49 1.645,-9.66 8.5,-9.5 12.603,-2.59 25.27,-4.75 38,-6.5 0.726,-26.37 -5.774,-50.7 -19.5,-73 -5.916,-9.25 -13.249,-17.25 -22,-24 -0.373,10.11 -1.539,20.11 -3.5,30 0.997,-11.3 -26.68661,-11.1449 -27.68361,-22.1749 -2.304,-0.9 15.10692,-56.9867 15.18361,-64.8251 0.427,-6.03 1.093,-12.03 2,-18 0.465,-1.43 1.299,-2.6 2.5,-3.5 18.779,-2.1 30.946,-12.27 36.5,-30.5 3.978,-12.65 3.312,-24.98 -2,-37 -6.583,-7.47 -13.75,-7.97 -21.5,-1.5 -1.952,2.07 -3.785,4.24 -5.5,6.5 -1.904,4.28 -4.071,8.28 -6.5,12 -6.144,0.39 -11.144,-1.78 -15,-6.5 -9.661,-0.5 -19.328,-0.67 -29,-0.5 v 5 c -2.49,12.64 -8.824,22.97 -19,31 -8.558,4.61 -17.558,5.78 -27,3.5 -3.688,-1.51 -7.355,-3.01 -11,-4.5 -10.888,-9.81 -16.055,-22.14 -15.5,-37 -2.289,-1.49 -4.789,-2.49 -7.5,-3 -1.925,0.09 -3.092,1.09 -3.5,3 -2.699,13.8 -5.866,27.46 -9.5,41 -0.285,5.4 0.049,10.73 1,16 8.975,1 17.975,1.33 27,1 1.207,3.31 1.207,6.65 0,10 -8.922,1.14 -17.922,1.3 -27,0.5 -5.41,-1.74 -9.244,-5.24 -11.5,-10.5 -0.499,-4.65 -0.666,-9.32 -0.5,-14 1.032,-2.52 1.532,-5.19 1.5,-8 -7.511,5.09 -15.678,6.75 -24.5,5 -1.178,29.61 4.988,57.61 18.5,84 3.29,5.46 7.457,10.12 12.5,14 6.5,6.92 14.5,11.25 24,13 23.32,4.17 43.986,-1.67 62,-17.5 8.91,-8.41 17.243,-17.24 25,-26.5 0.586,0.21 1.086,0.54 1.5,1 0.161,10.02 -2.839,19.02 -9,27 -10.089,12.26 -21.589,22.92 -34.5,32 -21.45049,4.2407 -32.1115,23.1416 -35,23 -11.926,-9.09 -22.759,-19.42 -32.5,-31 -1.731,4.83 -2.731,9.83 -3,15 -0.5,8.33 -0.666,16.66 -0.5,25 0.162,2.03 -0.005,4.03 -0.5,6 -0.167,-5.83 -0.333,-11.67 -0.5,-17.5 0.063,-9.9 0.563,-19.73 1.5,-29.5 -0.29,1.54 -0.956,2.88 -2,4 -1.154,-1.24 -2.488,-2.24 -4,-3 -2.195,8.54 -4.028,16.87 -5.5,25 0.009,-7.84 0.842,-15.51 2.5,-23 -7.333,6 -14,12.67 -20,20 -8.98,16.77 -15.48,34.44 -19.5,53 -0.639,-0.6 -0.972,-1.43 -1,-2.5 1.168,-4.84 2.334,-9.67 3.5,-14.5 4.947,-12.68 9.78,-25.35 14.5,-38 -1.052,0.15 -2.052,-0.02 -3,-0.5 -0.576,-2.27 -1.91,-3.27 -4,-3 2.391,1.31 2.391,2.31 0,3 1.051,1.38 2.384,2.38 4,3 -1.718,0.35 -3.385,0.85 -5,1.5 -1.829,-0.78 -3.329,-0.12 -4.5,2 -0.359,3.12 0.808,5.62 3.5,7.5 -1.167,1.83 -2.667,3.33 -4.5,4.5 -0.333,-0.67 -0.667,-1.33 -1,-2 -9.519,24.74 -17.186,50.07 -23,76 -1.507,2.93 -3.841,4.93 -7,6 -0.464,-0.59 -0.631,-1.26 -0.5,-2 1.886,-0.86 3.72,-1.86 5.5,-3 6.548,-28.44 14.714,-56.11 24.5,-83 -5.211,2.11 -10.211,4.44 -15,7 -32.582,16.21 -98.1667,167.67 -98,227 v 2 c -0.9907,-61.11 83.248,-236.96 114,-251.5 z"
         id="path9"
         sodipodi:nodetypes="ccccccccccccccssssccccccccccccccccccccccccccccccccccccccccccccccccccccccccccccccccccccccccccccccccccccccccccccccccccccc" />
    </g>
    <g
       id="g11"
       transform="matrix(0.4330029,0,0,0.42760103,-10.388874,-336.51344)"
       style="clip-rule:evenodd;fill-rule:evenodd;image-rendering:optimizeQuality;shape-rendering:geometricPrecision;text-rendering:geometricPrecision;stroke:none;stroke-opacity:1">
      <path
         style="opacity:1;stroke:none;stroke-opacity:1"
         fill="#e9ae76"
         d="m 340.5,1164.5 c 0.167,-11.67 -1.205,-9.62 -2,3 -17.259,24.41 -39.592,42.91 -67,55.5 -2.338,0.84 -4.672,1.67 -7,2.5 -1.538,0.05 -2.538,-0.62 -3,-2 -3.488,-2.59 -6.821,-5.42 -10,-8.5 0.626,-0.75 1.126,-1.58 1.5,-2.5 0.419,1.17 1.085,2.17 2,3 0.494,-1.63 0.66,-3.3 0.5,-5 1.762,0.14 3.429,-0.19 5,-1 -0.391,1.39 0.442,2.39 2.5,3 0.72,-1.61 0.554,-3.11 -0.5,-4.5 5.174,-1.75 9.841,-4.25 14,-7.5 12.911,-9.08 24.411,-19.74 34.5,-32 6.161,-7.98 9.161,-16.98 9,-27 -0.414,-0.46 -0.914,-0.79 -1.5,-1 -7.757,9.26 -16.09,18.09 -25,26.5 -18.014,15.83 -38.68,21.67 -62,17.5 -8.071,-3.05 -16.071,-7.39 -24,-13 -5.043,-3.88 -9.21,-8.54 -12.5,-14 -13.512,-26.39 -19.678,-54.39 -18.5,-84 8.822,1.75 16.989,0.09 24.5,-5 0.032,2.81 -0.468,5.48 -1.5,8 -3.88,8.51 -1.88,16.34 6,23.5 1.333,0.67 2.667,1.33 4,2 4.833,0.17 9.667,0.33 14.5,0.5 5.216,-0.01 10.049,-0.67 14.5,-2 1.207,-3.35 1.207,-6.69 0,-10 -8.539,-0.66 -17.206,-1.49 -26,-2.5 -0.644,-4.93 -1.31,-9.77 -2,-14.5 3.634,-13.54 6.801,-27.2 9.5,-41 0.408,-1.91 1.575,-2.91 3.5,-3 2.711,0.51 5.211,1.51 7.5,3 -0.555,14.86 4.612,27.19 15.5,37 10.059,7.37 21.059,8.87 33,4.5 2.084,-0.7 3.751,-1.86 5,-3.5 10.176,-8.03 16.51,-18.36 19,-31 -0.149,1.05 0.017,2.05 0.5,3 0.497,-2.31 0.663,-4.64 0.5,-7 9.006,-0.17 18.006,0 27,0.5 4.296,4.58 9.629,7.08 16,7.5 0.963,-0.47 0.963,-1.14 0,-2 2.429,-3.72 4.596,-7.72 6.5,-12 1.715,-2.26 3.548,-4.43 5.5,-6.5 7.75,-6.47 14.917,-5.97 21.5,1.5 5.312,12.02 5.978,24.35 2,37 -5.554,18.23 -17.721,28.4 -36.5,30.5 -1.201,0.9 -2.035,2.07 -2.5,3.5 -0.907,5.97 -1.573,11.97 -2,18 -0.168,17.17 -0.668,34.17 -1.5,51 z"
         id="path11"
         sodipodi:nodetypes="cccccccccccccccccccccccccccccccccccccccccccccccccc" />
    </g>
    <g
       id="g12"
       transform="matrix(0.4330029,0,0,0.42760103,-10.388874,-336.51344)"
       style="clip-rule:evenodd;fill-rule:evenodd;image-rendering:optimizeQuality;shape-rendering:geometricPrecision;text-rendering:geometricPrecision;stroke:none;stroke-opacity:1">
      <path
         style="opacity:1;stroke:none;stroke-opacity:1"
         fill="#fbf2a7"
         d="m 261.5,1127.5 c -0.111,0.62 -0.444,1.12 -1,1.5 -9.842,0.82 -19.509,0.66 -29,-0.5 10.052,0.28 20.052,-0.05 30,-1 z"
         id="path12" />
    </g>
    <g
       id="g13"
       transform="matrix(0.4330029,0,0,0.42760103,-10.388874,-336.51344)"
       style="clip-rule:evenodd;fill-rule:evenodd;image-rendering:optimizeQuality;shape-rendering:geometricPrecision;text-rendering:geometricPrecision;stroke:none;stroke-opacity:1">
      <path
         style="opacity:1;stroke:none;stroke-opacity:1"
         fill="#f2d896"
         d="m 210.5,1117.5 c -3.978,3.38 -3.978,6.88 0,10.5 1.634,0.49 3.301,0.66 5,0.5 4.816,0.83 9.816,1.33 15,1.5 -7.082,0.88 -14.082,0.55 -21,-1 -4.701,-3.78 -5.034,-7.78 -1,-12 0.937,-0.69 1.603,-0.53 2,0.5 z"
         id="path13" />
    </g>
    <g
       id="g14"
       transform="matrix(0.4330029,0,0,0.42760103,-10.388874,-336.51344)"
       style="clip-rule:evenodd;fill-rule:evenodd;image-rendering:optimizeQuality;shape-rendering:geometricPrecision;text-rendering:geometricPrecision;stroke:none;stroke-opacity:1">
      <path
         style="opacity:1;stroke:none;stroke-opacity:1"
         fill="#0d1414"
         d="m 241.5,1116.5 c 6.452,-0.42 12.785,0.08 19,1.5 2.339,2.89 2.672,6.05 1,9.5 -9.948,0.95 -19.948,1.28 -30,1 -5.333,0 -10.667,0 -16,0 -1.699,0.16 -3.366,-0.01 -5,-0.5 -3.978,-3.62 -3.978,-7.12 0,-10.5 10.514,0.33 20.847,-0.01 31,-1 z"
         id="path14" />
    </g>
    <g
       id="g15"
       transform="matrix(0.4330029,0,0,0.42760103,-10.388874,-336.51344)"
       style="clip-rule:evenodd;fill-rule:evenodd;image-rendering:optimizeQuality;shape-rendering:geometricPrecision;text-rendering:geometricPrecision;stroke:none;stroke-opacity:1">
      <path
         style="opacity:1;stroke:none;stroke-opacity:1"
         fill="#fbeca5"
         d="m 261.5,1127.5 c 1.672,-3.45 1.339,-6.61 -1,-9.5 -6.215,-1.42 -12.548,-1.92 -19,-1.5 -10.006,0.17 -20.006,0 -30,-0.5 16.333,-0.67 32.667,-0.67 49,0 2.894,2.91 3.727,6.41 2.5,10.5 -0.383,0.56 -0.883,0.89 -1.5,1 z"
         id="path15" />
    </g>
    <g
       id="g16"
       transform="matrix(0.4330029,0,0,0.42760103,-10.388874,-336.51344)"
       style="clip-rule:evenodd;fill-rule:evenodd;image-rendering:optimizeQuality;shape-rendering:geometricPrecision;text-rendering:geometricPrecision;stroke:none;stroke-opacity:1">
      <path
         style="opacity:1;stroke:none;stroke-opacity:1"
         fill="#f1d995"
         d="m 199.5,1076.5 c -0.166,4.68 0.001,9.35 0.5,14 2.256,5.26 6.09,8.76 11.5,10.5 9.078,0.8 18.078,0.64 27,-0.5 -4.451,1.33 -9.284,1.99 -14.5,2 -4.833,-0.17 -9.667,-0.33 -14.5,-0.5 -1.333,-0.67 -2.667,-1.33 -4,-2 -7.88,-7.16 -9.88,-14.99 -6,-23.5 z"
         id="path16" />
    </g>
    <g
       id="g17"
       transform="matrix(0.4330029,0,0,0.42760103,-10.388874,-336.51344)"
       style="clip-rule:evenodd;fill-rule:evenodd;image-rendering:optimizeQuality;shape-rendering:geometricPrecision;text-rendering:geometricPrecision;stroke:none;stroke-opacity:1">
      <path
         style="opacity:1;stroke:none;stroke-opacity:1"
         fill="#fbe8a2"
         d="m 210.5,1073.5 c 0.69,4.73 1.356,9.57 2,14.5 8.794,1.01 17.461,1.84 26,2.5 -9.025,0.33 -18.025,0 -27,-1 -0.951,-5.27 -1.285,-10.6 -1,-16 z"
         id="path17" />
    </g>
    <g
       id="g18"
       transform="matrix(0.4330029,0,0,0.42760103,-10.388874,-336.51344)"
       style="clip-rule:evenodd;fill-rule:evenodd;image-rendering:optimizeQuality;shape-rendering:geometricPrecision;text-rendering:geometricPrecision;stroke:none;stroke-opacity:1">
      <path
         style="opacity:1;stroke:none;stroke-opacity:1"
         fill="#f4dd98"
         d="m 246.5,1069.5 c 3.645,1.49 7.312,2.99 11,4.5 9.442,2.28 18.442,1.11 27,-3.5 -1.249,1.64 -2.916,2.8 -5,3.5 -11.941,4.37 -22.941,2.87 -33,-4.5 z"
         id="path18" />
    </g>
    <g
       id="g19"
       transform="matrix(0.4330029,0,0,0.42760103,-10.388874,-336.51344)"
       style="clip-rule:evenodd;fill-rule:evenodd;image-rendering:optimizeQuality;shape-rendering:geometricPrecision;text-rendering:geometricPrecision;stroke:none;stroke-opacity:1">
      <path
         style="opacity:1;stroke:none;stroke-opacity:1"
         fill="#f5e5a0"
         d="m 284.5,1052.5 c -6.286,8.46 -14.619,11.29 -25,8.5 -1.82,-0.2 -3.153,-1.03 -4,-2.5 11.195,4.4 20.695,2.06 28.5,-7 0.399,0.23 0.565,0.56 0.5,1 z"
         id="path19" />
    </g>
    <g
       id="g20"
       transform="matrix(0.4330029,0,0,0.42760103,-10.388874,-336.51344)"
       style="clip-rule:evenodd;fill-rule:evenodd;image-rendering:optimizeQuality;shape-rendering:geometricPrecision;text-rendering:geometricPrecision;stroke:none;stroke-opacity:1">
      <path
         style="opacity:1;stroke:none;stroke-opacity:1"
         fill="#101414"
         d="m 368.5,1030.5 c 2.434,0.6 4.101,2.1 5,4.5 -2.151,3.49 -4.318,6.99 -6.5,10.5 -0.481,4.03 -1.147,8.03 -2,12 -3.277,6.56 -6.277,6.56 -9,0 -0.535,-11.25 3.631,-20.25 12.5,-27 z"
         id="path20" />
    </g>
    <g
       id="g21"
       transform="matrix(0.4330029,0,0,0.42760103,-10.388874,-336.51344)"
       style="clip-rule:evenodd;fill-rule:evenodd;image-rendering:optimizeQuality;shape-rendering:geometricPrecision;text-rendering:geometricPrecision;stroke:none;stroke-opacity:1">
      <path
         style="opacity:1;stroke:none;stroke-opacity:1"
         fill="#f0e29f"
         d="m 288.5,1024.5 c 0.722,0.42 1.222,1.08 1.5,2 0.667,5 0.667,10 0,15 -0.663,3.54 -2.163,6.54 -4.5,9 3.97,-8.3 4.97,-16.96 3,-26 z"
         id="path21" />
    </g>
    <g
       id="g22"
       transform="matrix(0.4330029,0,0,0.42760103,-10.388874,-336.51344)"
       style="clip-rule:evenodd;fill-rule:evenodd;image-rendering:optimizeQuality;shape-rendering:geometricPrecision;text-rendering:geometricPrecision;stroke:none;stroke-opacity:1">
      <path
         style="opacity:1;stroke:none;stroke-opacity:1"
         fill="#fdefa8"
         d="m 347.5,1041.5 c 0.963,0.86 0.963,1.53 0,2 -6.371,-0.42 -11.704,-2.92 -16,-7.5 -8.994,-0.5 -17.994,-0.67 -27,-0.5 0.163,2.36 -0.003,4.69 -0.5,7 -0.483,-0.95 -0.649,-1.95 -0.5,-3 0,-1.67 0,-3.33 0,-5 9.672,-0.17 19.339,0 29,0.5 3.856,4.72 8.856,6.89 15,6.5 z"
         id="path22" />
    </g>
    <g
       id="g23"
       transform="matrix(0.4330029,0,0,0.42760103,-10.388874,-336.51344)"
       style="clip-rule:evenodd;fill-rule:evenodd;image-rendering:optimizeQuality;shape-rendering:geometricPrecision;text-rendering:geometricPrecision;stroke:none;stroke-opacity:1">
      <path
         style="opacity:1;stroke:none;stroke-opacity:1"
         fill="#fbf1ab"
         d="m 298.5,1014.5 c 1.679,1.5 3.012,3.33 4,5.5 9.591,1.09 18.925,0.59 28,-1.5 -0.086,1 0.248,1.83 1,2.5 -10,0.67 -20,0.67 -30,0 -1.414,-1.99 -2.414,-4.16 -3,-6.5 z"
         id="path23" />
    </g>
    <g
       id="g24"
       transform="matrix(0.4330029,0,0,0.42760103,-10.388874,-336.51344)"
       style="clip-rule:evenodd;fill-rule:evenodd;image-rendering:optimizeQuality;shape-rendering:geometricPrecision;text-rendering:geometricPrecision;stroke:none;stroke-opacity:1">
      <path
         style="opacity:1;stroke:none;stroke-opacity:1"
         fill="#e9b078"
         d="m 288.5,1024.5 c 1.97,9.04 0.97,17.7 -3,26 0.172,0.99 -0.162,1.66 -1,2 0.065,-0.44 -0.101,-0.77 -0.5,-1 -7.805,9.06 -17.305,11.4 -28.5,7 -5.921,-2.78 -9.754,-7.45 -11.5,-14 -3.082,-18.85 4.584,-30.52 23,-35 7.644,0.32 13.977,3.32 19,9 1.122,1.91 1.955,3.91 2.5,6 z"
         id="path24" />
    </g>
    <g
       id="g25"
       transform="matrix(0.4330029,0,0,0.42760103,-10.388874,-336.51344)"
       style="clip-rule:evenodd;fill-rule:evenodd;image-rendering:optimizeQuality;shape-rendering:geometricPrecision;text-rendering:geometricPrecision;stroke:none;stroke-opacity:1">
      <path
         style="opacity:1;stroke:none;stroke-opacity:1"
         fill="#0f1515"
         d="m 259.5,1037.5 c -2.053,-5.62 -0.719,-10.29 4,-14 10.861,-1.64 15.695,3.03 14.5,14 -6.256,9.28 -12.423,9.28 -18.5,0 z"
         id="path25" />
    </g>
    <g
       id="g26"
       transform="matrix(0.4330029,0,0,0.42760103,-10.388874,-336.51344)"
       style="clip-rule:evenodd;fill-rule:evenodd;image-rendering:optimizeQuality;shape-rendering:geometricPrecision;text-rendering:geometricPrecision;stroke:none;stroke-opacity:1">
      <path
         style="opacity:1;stroke:none;stroke-opacity:1"
         fill="#efd796"
         d="m 259.5,1037.5 c 6.077,9.28 12.244,9.28 18.5,0 1.195,-10.97 -3.639,-15.64 -14.5,-14 9.081,-3.28 14.748,0.06 17,10 -2.376,11.19 -8.71,14.35 -19,9.5 -2.106,-1.64 -2.772,-3.47 -2,-5.5 z"
         id="path26" />
    </g>
    <g
       id="g27"
       transform="matrix(0.4330029,0,0,0.42760103,-10.388874,-336.51344)"
       style="clip-rule:evenodd;fill-rule:evenodd;image-rendering:optimizeQuality;shape-rendering:geometricPrecision;text-rendering:geometricPrecision;stroke:none;stroke-opacity:1">
      <path
         style="opacity:1;stroke:none;stroke-opacity:1"
         fill="#e9b37b"
         d="m 178.5,1009.5 c 14.292,-1.88 23.458,4.12 27.5,18 0.884,7.08 0.551,14.08 -1,21 -8.331,13.85 -19.497,16.69 -33.5,8.5 -14.603,-14.65 -14.603,-29.32 0,-44 2.425,-1.21 4.759,-2.38 7,-3.5 z"
         id="path27" />
    </g>
    <g
       id="g28"
       transform="matrix(0.4330029,0,0,0.42760103,-10.388874,-336.51344)"
       style="clip-rule:evenodd;fill-rule:evenodd;image-rendering:optimizeQuality;shape-rendering:geometricPrecision;text-rendering:geometricPrecision;stroke:none;stroke-opacity:1">
      <path
         style="opacity:1;stroke:none;stroke-opacity:1"
         fill="#101515"
         d="m 184.5,1023.5 c 10.573,-0.19 14.406,4.81 11.5,15 -7.011,7 -12.677,6 -17,-3 -0.587,-5.16 1.246,-9.16 5.5,-12 z"
         id="path28" />
    </g>
    <g
       id="g29"
       transform="matrix(0.4330029,0,0,0.42760103,-10.388874,-336.51344)"
       style="clip-rule:evenodd;fill-rule:evenodd;image-rendering:optimizeQuality;shape-rendering:geometricPrecision;text-rendering:geometricPrecision;stroke:none;stroke-opacity:1">
      <path
         style="opacity:1;stroke:none;stroke-opacity:1"
         fill="#f7eaa3"
         d="m 173.5,968.5 c 0.994,9.152 1.327,18.485 1,28 6.047,-1.252 10.714,-1.252 14,0 -4.813,-0.28 -9.48,0.386 -14,2 -0.999,-9.978 -1.332,-19.978 -1,-30 z"
         id="path29" />
    </g>
    <g
       id="g30"
       transform="matrix(0.4330029,0,0,0.42760103,-10.388874,-336.51344)"
       style="clip-rule:evenodd;fill-rule:evenodd;image-rendering:optimizeQuality;shape-rendering:geometricPrecision;text-rendering:geometricPrecision;stroke:none;stroke-opacity:1">
      <path
         style="opacity:1;stroke:none;stroke-opacity:1"
         fill="#e9ae77"
         d="m 187.5,950.5 c 5.927,3.991 12.593,6.158 20,6.5 12.362,0.752 24.696,0.419 37,-1 -1.293,-0.49 -2.627,-0.657 -4,-0.5 16.421,-1.815 32.754,-4.815 49,-9 0.597,0.639 1.43,0.972 2.5,1 5.596,-2.511 11.429,-3.344 17.5,-2.5 l 2.5,2.5 c 2.577,13.605 4.91,27.272 7,41 3.39,10.083 6.89,19.42 10.5,28 0.838,0.34 1.172,1.01 1,2 -9.075,2.09 -18.409,2.59 -28,1.5 -0.988,-2.17 -2.321,-4 -4,-5.5 -4.667,-5.33 -9.667,-10.33 -15,-15 -1.249,-1.636 -2.916,-2.803 -5,-3.5 -5.931,-1.471 -11.931,-1.804 -18,-1 -3.535,0.663 -6.535,2.163 -9,4.5 -7.08,5.58 -12.914,12.25 -17.5,20 -6.28,-3.19 -12.614,-3.52 -19,-1 -5.184,-12.04 -14.017,-19.374 -26.5,-22 -3.286,-1.252 -7.953,-1.252 -14,0 0.327,-9.515 -0.006,-18.848 -1,-28 0.534,-8.137 1.867,-16.137 4,-24 0.502,-1.021 1.168,-1.188 2,-0.5 2.855,2.031 5.522,4.197 8,6.5 z"
         id="path30"
         sodipodi:nodetypes="ccccccccccccccccccccccccc" />
    </g>
    <g
       id="g31"
       transform="matrix(0.4330029,0,0,0.42760103,-10.388874,-336.51344)"
       style="clip-rule:evenodd;fill-rule:evenodd;image-rendering:optimizeQuality;shape-rendering:geometricPrecision;text-rendering:geometricPrecision;stroke:none;stroke-opacity:1">
      <path
         style="opacity:1;stroke:none;stroke-opacity:1"
         fill="#f3db97"
         d="m 283.5,999.5 c -10.692,-5.205 -21.359,-5.205 -32,0 2.465,-2.337 5.465,-3.837 9,-4.5 6.069,-0.804 12.069,-0.471 18,1 2.084,0.697 3.751,1.864 5,3.5 z"
         id="path31" />
    </g>
    <g
       id="g32"
       transform="matrix(0.4330029,0,0,0.42760103,-10.388874,-336.51344)"
       style="clip-rule:evenodd;fill-rule:evenodd;image-rendering:optimizeQuality;shape-rendering:geometricPrecision;text-rendering:geometricPrecision;stroke:none;stroke-opacity:1">
      <path
         style="opacity:1;stroke:none;stroke-opacity:1"
         fill="#edd292"
         d="m 329.5,1016.5 c -3.61,-8.58 -7.11,-17.917 -10.5,-28 -2.09,-13.728 -4.423,-27.395 -7,-41 -0.833,-0.833 -1.667,-1.667 -2.5,-2.5 -6.071,-0.844 -11.904,-0.011 -17.5,2.5 -1.07,-0.028 -1.903,-0.361 -2.5,-1 5.087,-1.563 10.253,-2.897 15.5,-4 3.267,0.196 5.934,1.53 8,4 3.034,14.565 5.701,29.231 8,44 3.34,8.519 6.173,17.19 8.5,26 z"
         id="path32" />
    </g>
    <g
       id="g33"
       transform="matrix(0.4330029,0,0,0.42760103,-10.388874,-336.51344)"
       style="clip-rule:evenodd;fill-rule:evenodd;image-rendering:optimizeQuality;shape-rendering:geometricPrecision;text-rendering:geometricPrecision;stroke:none;stroke-opacity:1">
      <path
         style="opacity:1;stroke:none;stroke-opacity:1"
         fill="#edd391"
         d="m 187.5,950.5 c 4.832,1.959 9.832,3.459 15,4.5 12.662,0.5 25.329,0.667 38,0.5 1.373,-0.157 2.707,0.01 4,0.5 -12.304,1.419 -24.638,1.752 -37,1 -7.407,-0.342 -14.073,-2.509 -20,-6.5 z"
         id="path33" />
    </g>
    <g
       id="g116"
       transform="matrix(0.4330029,0,0,0.42760103,-10.388874,-336.51344)"
       style="clip-rule:evenodd;fill-rule:evenodd;image-rendering:optimizeQuality;shape-rendering:geometricPrecision;text-rendering:geometricPrecision;stroke:none;stroke-opacity:1">
      <path
         style="opacity:1;stroke:none;stroke-opacity:1"
         fill="#0d1313"
         d="m 223.5,1138.5 c 6.009,-0.17 12.009,0 18,0.5 4.733,2.92 5.066,6.26 1,10 -6.667,0.67 -13.333,0.67 -20,0 -2.779,-3.82 -2.446,-7.32 1,-10.5 z"
         id="path116" />
    </g>
    <g
       id="g118"
       transform="matrix(0.4330029,0,0,0.42760103,-10.388874,-336.51344)"
       style="clip-rule:evenodd;fill-rule:evenodd;image-rendering:optimizeQuality;shape-rendering:geometricPrecision;text-rendering:geometricPrecision;stroke:none;stroke-opacity:1">
      <path
         style="opacity:1;stroke:none;stroke-opacity:1"
         fill="#fdde97"
         d="m 340.5,1164.5 c -0.057,1.11 -0.39,2.11 -1,3 -0.333,0 -0.667,0 -1,0 0.795,-12.62 1.295,-25.29 1.5,-38 0.5,11.66 0.667,23.33 0.5,35 z"
         id="path118" />
    </g>
    <g
       id="g139"
       transform="matrix(0.4330029,0,0,0.42760103,-10.388874,-336.51344)"
       style="clip-rule:evenodd;fill-rule:evenodd;image-rendering:optimizeQuality;shape-rendering:geometricPrecision;text-rendering:geometricPrecision;stroke:none;stroke-opacity:1">
      <path
         style="opacity:1;stroke:none;stroke-opacity:1"
         fill="#edd898"
         d="m 207.5,1171.5 c 7.929,5.61 15.929,9.95 24,13 -9.5,-1.75 -17.5,-6.08 -24,-13 z"
         id="path139" />
    </g>
    <g
       id="g146"
       transform="matrix(0.4330029,0,0,0.42760103,-10.388874,-336.51344)"
       style="clip-rule:evenodd;fill-rule:evenodd;image-rendering:optimizeQuality;shape-rendering:geometricPrecision;text-rendering:geometricPrecision;stroke:none;stroke-opacity:1">
      <path
         style="opacity:1;stroke:none;stroke-opacity:1"
         fill="#e7d8c3"
         d="m 194.5,1217.5 c 1.521,49.11 9.688,97.11 24.5,144 6.303,19.24 12.803,38.41 19.5,57.5 -1.03,2.56 -2.197,5.06 -3.5,7.5 -16.161,-19.83 -31.161,-40.49 -45,-62 -1.87,-9.59 -3.536,-19.26 -5,-29 -3.794,-13.79 -11.961,-23.96 -24.5,-30.5 5.9,-6.06 11.234,-12.56 16,-19.5 -1.148,-1.65 -2.481,-3.15 -4,-4.5 -5.667,-0.33 -11.333,-0.67 -17,-1 -0.545,-4.25 0.122,-8.42 2,-12.5 4.02,-18.56 10.52,-36.23 19.5,-53 6,-7.33 12.667,-14 20,-20 -1.658,7.49 -2.491,15.16 -2.5,23 z"
         id="path146" />
    </g>
    <g
       id="g154"
       transform="matrix(0.4330029,0,0,0.42760103,-10.388874,-336.51344)"
       style="clip-rule:evenodd;fill-rule:evenodd;image-rendering:optimizeQuality;shape-rendering:geometricPrecision;text-rendering:geometricPrecision;stroke:none;stroke-opacity:1">
      <path
         style="opacity:1;stroke:none;stroke-opacity:1"
         fill="#0c1616"
         d="m 354.5,1200.5 c -5.879,23.8 -14.046,46.8 -24.5,69 -19.666,40 -39.833,79.67 -60.5,119 -6.73573,52.9366 -24.20143,84.9307 -41.58041,85.8637 -13.50075,0.7249 -14.09334,1.0145 -16.57965,0.9397 -5.85767,-0.1764 10.08929,-18.4036 18.16006,-35.3034 -5.167,-6.5 -10.333,-13 -15.5,-19.5 -8.172,-13.01 -16.839,-25.68 -26,-38 -1.512,18.05 -5.845,35.38 -13,52 -4.609,5.62 -7.943,11.96 -10,19 -4.682,5.02 -10.182,6.19 -16.5,3.5 -6.92,-7.25 -6.587,-13.92 1,-20 3.196,-0.4 6.03,-1.56 8.5,-3.5 11.28,-20.12 16.78,-41.79 16.5,-65 0.25,-12.92 -2.25,-25.25 -7.5,-37 -16.212,-17.28 -30.545,-15.95 -43,4 -11.977,23.24 -16.977,47.91 -15,74 1.339,7.02 3.672,13.68 7,20 4.102,2.82 8.102,5.82 12,9 3.9,12.43 -0.6,17.93 -13.5,16.5 -16.407,-22.12 -22.907,-46.96 -19.5,-74.5 2.744,-22.57 10.411,-43.24 23,-62 3.41,-3.92 7.243,-7.25 11.5,-10 -0.131,0.74 0.036,1.41 0.5,2 3.159,-1.07 5.493,-3.07 7,-6 5.814,-25.93 13.481,-51.26 23,-76 0.333,0.67 0.667,1.33 1,2 1.833,-1.17 3.333,-2.67 4.5,-4.5 -2.692,-1.88 -3.859,-4.38 -3.5,-7.5 1.171,-2.12 2.671,-2.78 4.5,-2 1.615,-0.65 3.282,-1.15 5,-1.5 -1.616,-0.62 -2.949,-1.62 -4,-3 2.391,-0.69 2.391,-1.69 0,-3 2.09,-0.27 3.424,0.73 4,3 0.948,0.48 1.948,0.65 3,0.5 -4.72,12.65 -9.553,25.32 -14.5,38 -1.166,4.83 -2.332,9.66 -3.5,14.5 0.028,1.07 0.361,1.9 1,2.5 -1.878,4.08 -2.545,8.25 -2,12.5 5.667,0.33 11.333,0.67 17,1 1.519,1.35 2.852,2.85 4,4.5 -4.766,6.94 -10.1,13.44 -16,19.5 12.539,6.54 20.706,16.71 24.5,30.5 1.464,9.74 3.13,19.41 5,29 13.839,21.51 28.839,42.17 45,62 1.303,-2.44 2.47,-4.94 3.5,-7.5 -6.697,-19.09 -13.197,-38.26 -19.5,-57.5 -14.812,-46.89 -22.979,-94.89 -24.5,-144 1.472,-8.13 3.305,-16.46 5.5,-25 1.512,0.76 2.846,1.76 4,3 1.044,-1.12 1.71,-2.46 2,-4 -0.937,9.77 -1.437,19.6 -1.5,29.5 0.167,5.83 0.333,11.67 0.5,17.5 0.495,-1.97 0.662,-3.97 0.5,-6 0.862,12.92 2.362,25.92 4.5,39 1.333,1.67 2.667,3.33 4,5 11.31,-15.98 24.643,-29.98 40,-42 -7.84749,0.2346 -66.25767,-57.8432 -45.94074,-51.4227 0.23537,0.7031 13.89667,12.5881 28.01902,23.2142 13.59865,10.232 27.66725,19.233 28.42172,19.2085 2.328,-0.83 4.662,-1.66 7,-2.5 34.10555,-14.447 93.43872,-101.4391 83,-22.5 z"
         id="path154"
         sodipodi:nodetypes="cccsscccccccccccccccccccccccccccccccccccccccccccccccccccccsccc" />
    </g>
    <g
       id="g155"
       transform="matrix(0.4330029,0,0,0.42760103,-10.388874,-336.51344)"
       style="clip-rule:evenodd;fill-rule:evenodd;image-rendering:optimizeQuality;shape-rendering:geometricPrecision;text-rendering:geometricPrecision;stroke:none;stroke-opacity:1">
      <path
         style="opacity:1;stroke:none;stroke-opacity:1"
         fill="#0e4b4f"
         d="m 257.5,1290.5 c 3,0 6,0 9,0 2.334,20.68 4.667,41.35 7,62 -8.848,17.03 -17.682,34.03 -26.5,51 -5.946,-14.5 -11.113,-29.34 -15.5,-44.5 1.135,-2.48 2.301,-4.98 3.5,-7.5 3.929,-19.38 9.262,-38.38 16,-57 2.072,-1.55 4.239,-2.88 6.5,-4 z"
         id="path155" />
    </g>
    <g
       id="g156"
       transform="matrix(0.4330029,0,0,0.42760103,-10.388874,-336.51344)"
       style="clip-rule:evenodd;fill-rule:evenodd;image-rendering:optimizeQuality;shape-rendering:geometricPrecision;text-rendering:geometricPrecision;stroke:none;stroke-opacity:1">
      <path
         style="opacity:1;stroke:none;stroke-opacity:1"
         fill="#80bbb7"
         d="m 289.5,1266.5 c 5.89,7.42 11.556,15.09 17,23 -7.291,15.91 -15.124,31.58 -23.5,47 -1.117,-1.45 -1.784,-3.12 -2,-5 -0.877,-13.57 -2.377,-27.07 -4.5,-40.5 -0.171,-3.13 0.662,-5.96 2.5,-8.5 4.256,-4.85 7.756,-10.18 10.5,-16 z"
         id="path156" />
    </g>
    <g
       id="g157"
       transform="matrix(0.4330029,0,0,0.42760103,-10.388874,-336.51344)"
       style="clip-rule:evenodd;fill-rule:evenodd;image-rendering:optimizeQuality;shape-rendering:geometricPrecision;text-rendering:geometricPrecision;stroke:none;stroke-opacity:1">
      <path
         style="opacity:1;stroke:none;stroke-opacity:1"
         fill="#81bcb8"
         d="m 235.5,1266.5 c 3.093,5.6 5.426,11.6 7,18 -5.873,18.28 -11.539,36.62 -17,55 -4.823,-15.61 -8.823,-31.45 -12,-47.5 7.463,-8.45 14.796,-16.95 22,-25.5 z"
         id="path157" />
    </g>
    <g
       id="g158"
       transform="matrix(0.4330029,0,0,0.42760103,-10.388874,-336.51344)"
       style="clip-rule:evenodd;fill-rule:evenodd;image-rendering:optimizeQuality;shape-rendering:geometricPrecision;text-rendering:geometricPrecision;stroke:none;stroke-opacity:1">
      <path
         style="opacity:1;stroke:none;stroke-opacity:1"
         fill="#eae5da"
         d="m 151.5,1291.5 c 2.357,-0.16 4.69,0 7,0.5 -3.603,3.38 -6.603,7.21 -9,11.5 -0.388,-3.92 0.279,-7.92 2,-12 z"
         id="path158" />
    </g>
    <g
       id="g159"
       transform="matrix(0.4330029,0,0,0.42760103,-10.388874,-336.51344)"
       style="clip-rule:evenodd;fill-rule:evenodd;image-rendering:optimizeQuality;shape-rendering:geometricPrecision;text-rendering:geometricPrecision;stroke:none;stroke-opacity:1">
      <path
         style="opacity:1;stroke:none;stroke-opacity:1"
         fill="#0e4d50"
         d="m 263.5,1239.5 c 6.508,5.67 12.508,11.84 18,18.5 -2.982,7.64 -6.982,14.64 -12,21 -5.024,0.66 -10.024,0.5 -15,-0.5 -1.494,-0.21 -2.661,-0.88 -3.5,-2 -2.14,-5.92 -3.974,-11.92 -5.5,-18 1.886,-0.91 3.72,-1.91 5.5,-3 4,-5.5 8.166,-10.83 12.5,-16 z"
         id="path159" />
    </g>
    <g
       id="g160"
       transform="matrix(0.4330029,0,0,0.42760103,-10.388874,-336.51344)"
       style="clip-rule:evenodd;fill-rule:evenodd;image-rendering:optimizeQuality;shape-rendering:geometricPrecision;text-rendering:geometricPrecision;stroke:none;stroke-opacity:1">
      <path
         style="opacity:1;stroke:none;stroke-opacity:1"
         fill="#7bb7b3"
         d="m 241.5,1223.5 c 3.574,3.47 7.574,6.47 12,9 1.021,0.5 1.188,1.17 0.5,2 -15.357,12.02 -28.69,26.02 -40,42 -1.333,-1.67 -2.667,-3.33 -4,-5 -2.138,-13.08 -3.638,-26.08 -4.5,-39 -0.166,-8.34 0,-16.67 0.5,-25 0.269,-5.17 1.269,-10.17 3,-15 9.741,11.58 20.574,21.91 32.5,31 z"
         id="path160" />
    </g>
    <g
       id="g161"
       transform="matrix(0.4330029,0,0,0.42760103,-10.388874,-336.51344)"
       style="clip-rule:evenodd;fill-rule:evenodd;image-rendering:optimizeQuality;shape-rendering:geometricPrecision;text-rendering:geometricPrecision;stroke:none;stroke-opacity:1">
      <path
         style="opacity:1;stroke:none;stroke-opacity:1"
         fill="#7eb9b5"
         d="m 343.5,1180.5 c 0.652,0.95 0.986,2.12 1,3.5 -4.717,32.82 -15.384,63.49 -32,92 -1,0.67 -2,0.67 -3,0 -9.482,-14.82 -20.482,-28.49 -33,-41 22.71,-11.28 42.876,-26.12 60.5,-44.5 2.81,-2.96 4.976,-6.3 6.5,-10 z"
         id="path161" />
    </g>
    <g
       id="g162"
       transform="matrix(0.4330029,0,0,0.42760103,-10.388874,-336.51344)"
       style="clip-rule:evenodd;fill-rule:evenodd;image-rendering:optimizeQuality;shape-rendering:geometricPrecision;text-rendering:geometricPrecision;stroke:none;stroke-opacity:1">
      <path
         style="opacity:1;stroke:none;stroke-opacity:1"
         fill="#e9bf87"
         d="m 276.5,1200.5 c -4.159,3.25 -8.826,5.75 -14,7.5 1.054,1.39 1.22,2.89 0.5,4.5 -2.058,-0.61 -2.891,-1.61 -2.5,-3 -1.571,0.81 -3.238,1.14 -5,1 0.16,1.7 -0.006,3.37 -0.5,5 -0.915,-0.83 -1.581,-1.83 -2,-3 -0.374,0.92 -0.874,1.75 -1.5,2.5 3.179,3.08 6.512,5.91 10,8.5 -7.314,-3.47 -13.98,-7.97 -20,-13.5 0.228,-0.4 0.562,-0.57 1,-0.5 12.023,-0.51 23.356,-3.51 34,-9 z"
         id="path162" />
    </g>
    <g
       id="g168"
       transform="matrix(0.4330029,0,0,0.42760103,-10.388874,-336.51344)"
       style="clip-rule:evenodd;fill-rule:evenodd;image-rendering:optimizeQuality;shape-rendering:geometricPrecision;text-rendering:geometricPrecision;stroke:none;stroke-opacity:1">
      <path
         style="opacity:1;stroke:#000000;stroke-width:23.24;stroke-dasharray:none;stroke-opacity:1;paint-order:stroke fill markers"
         fill="#e7d8c3"
         d="m 129.5,1308.5 c -4.257,2.75 -8.09,6.08 -11.5,10 -12.589,18.76 -20.256,39.43 -23,62 -3.407,27.54 3.093,52.38 19.5,74.5 12.9,1.43 17.4,-4.07 13.5,-16.5 -3.898,-3.18 -7.898,-6.18 -12,-9 -3.328,-6.32 -5.661,-12.98 -7,-20 -1.977,-26.09 3.023,-50.76 15,-74 12.455,-19.95 26.788,-21.28 43,-4 5.25,11.75 7.75,24.08 7.5,37 0.28,23.21 -5.22,44.88 -16.5,65 -2.47,1.94 -5.304,3.1 -8.5,3.5 -7.587,6.08 -7.92,12.75 -1,20 6.318,2.69 11.818,1.52 16.5,-3.5 2.057,-7.04 5.391,-13.38 10,-19 7.155,-16.62 11.488,-33.95 13,-52 9.161,12.32 17.828,24.99 26,38 5.167,6.5 10.333,13 15.5,19.5 -4.903,10.3 -9.903,20.47 -15,30.5 -1.101,1.35 -2.101,2.85 -3,4.5 -49,0.67 -98,0.67 -147,0 -2.0183,-0.5 -4.0183,-1 -6,-1.5 -6.1532,-3.32 -10.1532,-8.32 -12,-15 v -2 c 0.8328,-55.5 1.3328,-111.17 1.5,-167 0.1747,-3.71 0.6747,-7.38 1.5,-11 37.317061,-15.7947 73.24234,-39.7188 110,-56 -9.786,26.89 -17.952,54.56 -24.5,83 -1.78,1.14 -3.614,2.14 -5.5,3 z"
         id="path168"
         sodipodi:nodetypes="ccccccccccccccccccccccccccccc" />
    </g>
    <g
       id="g169"
       transform="matrix(0.4330029,0,0,0.42760103,-10.388874,-336.51344)"
       style="clip-rule:evenodd;fill-rule:evenodd;image-rendering:optimizeQuality;shape-rendering:geometricPrecision;text-rendering:geometricPrecision;stroke:#000000;stroke-opacity:1;stroke-width:23.23995197;stroke-dasharray:none;paint-order:stroke fill markers">
      <path
         style="opacity:1;stroke:#000000;stroke-opacity:1;stroke-width:23.23995197;stroke-dasharray:none;paint-order:stroke fill markers"
         fill="#e7d7c2"
         d="m 403.5,1212.5 c 22.572,10.29 44.572,21.62 66,34 1.163,69.6 1.33,139.26 0.5,209 -0.578,5.25 -2.411,9.91 -5.5,14 -2.493,3.07 -5.493,5.4 -9,7 h -2 c -75.168,-0.67 -150.501,-1.33 -226,-2 13.995,-28.66 27.995,-57.32 42,-86 20.667,-39.33 40.834,-79 60.5,-119 10.454,-22.2 18.621,-45.2 24.5,-69 1.961,-9.89 3.127,-19.89 3.5,-30 8.751,6.75 16.084,14.75 22,24 13.726,22.3 20.226,46.63 19.5,73 -12.73,1.75 -25.397,3.91 -38,6.5 -6.855,-0.16 -9.689,3.01 -8.5,9.5 7.251,9.92 15.251,19.26 24,28 0.315,1.41 -0.018,2.74 -1,4 -39.435,42.52 -79.102,84.86 -119,127 -3.695,4.86 -7.195,9.86 -10.5,15 0.848,1.78 2.181,2.28 4,1.5 14.311,-9.3 27.145,-20.47 38.5,-33.5 31.931,-35.93 64.598,-71.27 98,-106 2.245,-3.38 2.912,-7.05 2,-11 -5.793,-7.46 -11.959,-14.63 -18.5,-21.5 10.575,-1.92 21.242,-3.25 32,-4 3.113,0.05 5.613,-1.11 7.5,-3.5 1.785,-22.1 -0.715,-43.76 -7.5,-65 0.043,-0.92 0.376,-1.58 1,-2 z"
         id="path169"
         sodipodi:nodetypes="cccccccccccccccccccccccccccc" />
    </g>
  </g>
</svg>
