<?xml version="1.0" encoding="UTF-8" standalone="no"?>
<!-- Created with Inkscape (http://www.inkscape.org/) -->

<svg
   width="210mm"
   height="297mm"
   viewBox="0 0 210 297"
   version="1.1"
   id="svg1"
   inkscape:version="1.4.2 (ebf0e940d0, 2025-05-08)"
   sodipodi:docname="mafiaCard.svg"
   xmlns:inkscape="http://www.inkscape.org/namespaces/inkscape"
   xmlns:sodipodi="http://sodipodi.sourceforge.net/DTD/sodipodi-0.dtd"
   xmlns="http://www.w3.org/2000/svg"
   xmlns:svg="http://www.w3.org/2000/svg">
  <sodipodi:namedview
     id="namedview1"
     pagecolor="#ffffff"
     bordercolor="#000000"
     borderopacity="0.25"
     inkscape:showpageshadow="2"
     inkscape:pageopacity="0.0"
     inkscape:pagecheckerboard="0"
     inkscape:deskcolor="#d1d1d1"
     inkscape:document-units="mm"
     inkscape:zoom="0.5309756"
     inkscape:cx="926.59626"
     inkscape:cy="189.27424"
     inkscape:window-width="1920"
     inkscape:window-height="1008"
     inkscape:window-x="0"
     inkscape:window-y="0"
     inkscape:window-maximized="1"
     inkscape:current-layer="layer1" />
  <defs
     id="defs1">
    <inkscape:path-effect
       effect="fillet_chamfer"
       id="path-effect1"
       is_visible="true"
       lpeversion="1"
       nodesatellites_param="F,0,0,1,0,0,0,1 @ F,0,0,1,0,0,0,1 @ F,0,0,1,0,0,0,1 @ F,0,0,1,0,0,0,1"
       radius="0"
       unit="px"
       method="auto"
       mode="F"
       chamfer_steps="1"
       flexible="false"
       use_knot_distance="true"
       apply_no_radius="true"
       apply_with_radius="true"
       only_selected="false"
       hide_knots="false" />
  </defs>
  <g
     inkscape:label="Слой 1"
     inkscape:groupmode="layer"
     id="layer1"
     transform="translate(-211.25586,-38.085564)">
    <g
       id="g78"
       transform="matrix(0.26458333,0,0,0.26458333,39.193831,12.618215)"
       style="clip-rule:evenodd;fill-rule:evenodd;image-rendering:optimizeQuality;shape-rendering:geometricPrecision;text-rendering:geometricPrecision" />
    <g
       id="g79"
       transform="matrix(0.26458333,0,0,0.26458333,39.193831,12.618215)"
       style="clip-rule:evenodd;fill-rule:evenodd;image-rendering:optimizeQuality;shape-rendering:geometricPrecision;text-rendering:geometricPrecision" />
    <g
       id="g84"
       transform="matrix(0.26458333,0,0,0.26458333,39.193831,12.618215)"
       style="clip-rule:evenodd;fill-rule:evenodd;image-rendering:optimizeQuality;shape-rendering:geometricPrecision;text-rendering:geometricPrecision" />
    <g
       id="g86"
       transform="matrix(0.26458333,0,0,0.26458333,39.193831,12.618215)"
       style="clip-rule:evenodd;fill-rule:evenodd;image-rendering:optimizeQuality;shape-rendering:geometricPrecision;text-rendering:geometricPrecision" />
    <g
       id="g87"
       transform="matrix(0.26458333,0,0,0.26458333,39.193831,12.618215)"
       style="clip-rule:evenodd;fill-rule:evenodd;image-rendering:optimizeQuality;shape-rendering:geometricPrecision;text-rendering:geometricPrecision" />
    <g
       id="g88"
       transform="matrix(0.26458333,0,0,0.26458333,39.193831,12.618215)"
       style="clip-rule:evenodd;fill-rule:evenodd;image-rendering:optimizeQuality;shape-rendering:geometricPrecision;text-rendering:geometricPrecision" />
    <g
       id="g89"
       transform="matrix(0.26458333,0,0,0.26458333,39.193831,12.618215)"
       style="clip-rule:evenodd;fill-rule:evenodd;image-rendering:optimizeQuality;shape-rendering:geometricPrecision;text-rendering:geometricPrecision" />
    <g
       id="g91"
       transform="matrix(0.26458333,0,0,0.26458333,39.193831,12.618215)"
       style="clip-rule:evenodd;fill-rule:evenodd;image-rendering:optimizeQuality;shape-rendering:geometricPrecision;text-rendering:geometricPrecision" />
    <g
       id="g92"
       transform="matrix(0.26458333,0,0,0.26458333,39.193831,12.618215)"
       style="clip-rule:evenodd;fill-rule:evenodd;image-rendering:optimizeQuality;shape-rendering:geometricPrecision;text-rendering:geometricPrecision" />
    <g
       id="g93"
       transform="matrix(0.26458333,0,0,0.26458333,39.193831,12.618215)"
       style="clip-rule:evenodd;fill-rule:evenodd;image-rendering:optimizeQuality;shape-rendering:geometricPrecision;text-rendering:geometricPrecision" />
    <g
       id="g94"
       transform="matrix(0.26458333,0,0,0.26458333,38.598744,11.428041)"
       style="clip-rule:evenodd;fill-rule:evenodd;image-rendering:optimizeQuality;shape-rendering:geometricPrecision;text-rendering:geometricPrecision" />
    <rect
       style="fill:#000000;stroke-width:0.264583"
       id="rect1"
       width="200"
       height="300"
       x="211.25586"
       y="38.085564"
       sodipodi:type="rect"
       rx="15"
       ry="15" />
    <rect
       style="fill:#9d2d17;fill-opacity:1;stroke-width:0.265;stroke-dasharray:none"
       id="rect1-2"
       width="180"
       x="221.25586"
       y="48.085564"
       sodipodi:type="rect"
       rx="10"
       ry="10"
       height="280" />
    <rect
       style="fill:#000000;fill-opacity:1;stroke-width:0.240756;stroke-dasharray:none"
       id="rect1-2-2"
       width="160"
       x="231.25586"
       y="58.085564"
       sodipodi:type="rect"
       rx="8.8888893"
       ry="9.2857141"
       height="260" />
    <path
       style="clip-rule:evenodd;fill-rule:evenodd;stroke-width:0.403388;image-rendering:optimizeQuality;shape-rendering:geometricPrecision;text-rendering:geometricPrecision"
       fill="#1b2326"
       d="m 233.60763,236.16219 v -4.84067 c 8.32333,-3.72166 15.78621,-8.69706 22.38807,-14.92539 0.26906,0.53773 0.26906,1.07584 0,1.61356 -1.93948,5.55063 -3.55305,11.19807 -4.84066,16.94233 -1.96248,5.14804 -3.64328,10.39211 -5.04236,15.73216 0.0883,0.58008 0.29,1.11779 0.60509,1.61355 1.00846,0.73942 2.01693,1.47923 3.02541,2.21865 4.49174,2.2376 8.92901,4.59097 13.31183,7.05929 -0.7128,1.31909 -1.6539,2.46189 -2.82372,3.42882 -4.87738,3.00969 -9.65067,6.16943 -14.3203,9.47964 -0.17922,2.37837 0.22416,4.66437 1.21017,6.8576 2.56797,4.11578 14.82859,22.03292 17.23601,26.25397 -0.0674,0.13433 -10.17671,-7.89977 -10.3784,-7.69809 -3.63051,-5.9165 -7.261,-11.8326 -10.8915,-17.7491 -1.05458,-2.17185 -1.92862,-4.39048 -2.62204,-6.65591 0.11801,-1.37918 0.79036,-2.38766 2.01695,-3.02542 4.5915,-3.63776 9.43204,-6.86488 14.522,-9.68134 -4.26826,-1.86526 -8.43647,-3.94957 -12.50505,-6.25251 -0.86677,-0.46471 -1.6063,-1.0698 -2.21865,-1.81527 -0.25066,-3.03628 0.15273,-5.99434 1.21017,-8.87455 2.30016,-5.80839 4.24971,-11.72448 5.84914,-17.7491 -0.2025,-0.41185 -0.47116,-0.47923 -0.80678,-0.2017 -4.6374,3.39371 -9.61251,6.15007 -14.92538,8.26948 z"
       id="path78"
       sodipodi:nodetypes="cccccccccccccccccccccccc" />
    <path
       style="clip-rule:evenodd;fill-rule:evenodd;stroke-width:0.403388;image-rendering:optimizeQuality;shape-rendering:geometricPrecision;text-rendering:geometricPrecision"
       fill="#1a2224"
       d="m 388.91231,239.79268 c 0.37233,1.43768 0.50666,2.91691 0.40338,4.43729 -8.61476,-3.99395 -17.08593,-8.29691 -25.41348,-12.90845 -0.13432,0.13432 -0.26906,0.26906 -0.40339,0.40338 3.00726,8.10207 5.96531,16.23722 8.87454,24.40504 -0.47396,1.28681 -1.28075,2.36264 -2.42032,3.2271 -2.34086,1.46754 -4.62687,3.01371 -6.85761,4.63897 1.25696,1.10206 2.60145,2.11053 4.03388,3.02542 2.7261,1.40258 5.4151,2.88181 8.06778,4.43728 0.84389,0.74748 1.24728,1.68858 1.21017,2.82372 -1.08633,4.60307 -2.49819,9.10772 -4.23559,13.51353 -3.81001,8.52077 -7.4405,17.12627 -10.8915,25.81688 -1.18232,0.91246 -2.05606,2.05526 -2.62202,3.4288 -0.61597,0.55183 -1.22105,0.75353 -1.81524,0.60508 -0.15094,-0.36949 -0.35257,-0.70593 -0.60509,-1.00846 3.11214,-7.97017 6.40622,-15.97098 9.88302,-24.00164 2.33078,-5.64703 4.34773,-11.42921 6.05083,-17.34573 0.26382,0.48247 0.46552,0.48247 0.6051,0 -0.59783,-0.7999 -1.27028,-1.53933 -2.01695,-2.21862 -4.80557,-2.50263 -9.44454,-5.259 -13.91691,-8.26948 -0.37113,-1.13272 -0.0351,-2.00685 1.00846,-2.62202 2.93344,-1.7019 5.68981,-3.65148 8.26947,-5.84914 0.68737,-1.07826 1.15814,-2.22146 1.41186,-3.42881 -3.36708,-10.2368 -7.13231,-20.32151 -11.29488,-30.25416 0.14118,-0.50705 0.41025,-0.64179 0.80679,-0.40338 5.1908,3.19968 10.43486,6.29245 15.73216,9.27793 5.46309,2.66398 10.84147,5.42035 16.13554,8.26947 z"
       id="path79" />
    <path
       style="clip-rule:evenodd;fill-rule:evenodd;stroke-width:0.403388;image-rendering:optimizeQuality;shape-rendering:geometricPrecision;text-rendering:geometricPrecision"
       fill="#a52f17"
       d="m 302.58712,260.76889 c 2.14763,1.67892 3.96287,3.69587 5.44573,6.05084 0.0674,0.67244 0.13432,1.3445 0.2017,2.01694 -2.02098,14.76847 -3.83622,29.55953 -5.44575,44.37278 -6.32835,-15.49094 -11.84107,-31.2231 -16.53894,-47.19649 1.68093,1.68092 3.36145,3.36144 5.04236,5.04236 1.32756,0.83663 2.60469,0.76965 3.8322,-0.2017 2.26422,-3.53933 4.75151,-6.90116 7.4627,-10.08473 z"
       id="path84" />
    <path
       style="clip-rule:evenodd;fill-rule:evenodd;stroke-width:0.403388;image-rendering:optimizeQuality;shape-rendering:geometricPrecision;text-rendering:geometricPrecision"
       fill="#a32f17"
       d="m 332.03449,268.4333 c 0.64703,2.47761 2.2606,3.55343 4.84066,3.22709 -0.63129,4.21865 -1.16942,8.45423 -1.61354,12.70676 0.006,0.5587 0.14042,1.02904 0.40338,1.41185 -1.03186,10.2247 -2.84711,20.30943 -5.44574,30.25416 -1.58613,-15.94353 -4.07383,-31.74266 -7.46271,-47.39817 1.07181,-3.15168 2.41631,-6.17711 4.03391,-9.07625 2.07744,2.75272 3.82533,5.71118 5.24404,8.87456 z"
       id="path86" />
    <path
       style="clip-rule:evenodd;fill-rule:evenodd;stroke-width:0.403388;image-rendering:optimizeQuality;shape-rendering:geometricPrecision;text-rendering:geometricPrecision"
       fill="#a63017"
       d="m 337.68194,233.74185 c 2.02299,9.91368 1.41791,19.72974 -1.81526,29.44738 -2.79629,-6.33319 -5.95644,-12.4514 -9.47964,-18.35419 4.22753,-3.21904 7.99276,-6.91691 11.2949,-11.09319 z"
       id="path87" />
    <path
       style="clip-rule:evenodd;fill-rule:evenodd;stroke-width:0.403388;image-rendering:optimizeQuality;shape-rendering:geometricPrecision;text-rendering:geometricPrecision"
       fill="#a73117"
       d="m 275.96345,218.81647 c 9.00727,11.02824 20.0331,19.43205 33.07788,25.2118 -6.5224,6.11417 -11.96813,13.03914 -16.33724,20.77452 -3.34611,-2.4046 -6.30416,-5.22832 -8.87456,-8.47116 -3.52521,-12.31426 -6.14724,-24.81931 -7.86608,-37.51516 z"
       id="path88" />
    <path
       style="clip-rule:evenodd;fill-rule:evenodd;stroke-width:0.403388;image-rendering:optimizeQuality;shape-rendering:geometricPrecision;text-rendering:geometricPrecision"
       fill="#cb794e"
       d="m 277.577,194.61314 c 1.48165,5.11457 3.83462,9.8209 7.05931,14.1186 7.42921,9.31344 15.16097,18.38969 23.19485,27.22875 -3.2731,-0.62364 -6.36587,-1.83381 -9.27795,-3.63049 -9.89391,-6.39453 -17.49092,-14.79833 -22.79145,-25.2118 0.10612,-4.23033 0.71117,-8.39897 1.81524,-12.50506 z"
       id="path89" />
    <path
       style="clip-rule:evenodd;fill-rule:evenodd;stroke-width:0.403388;image-rendering:optimizeQuality;shape-rendering:geometricPrecision;text-rendering:geometricPrecision"
       fill="#ca774d"
       d="m 311.05828,197.43686 c -2.55467,0.33684 -3.22712,1.61396 -2.01695,3.83219 2.04519,0.97781 4.19646,1.24688 6.45422,0.80679 5.19605,-0.99356 10.44012,-1.26262 15.73216,-0.80679 0.36789,1.00364 -0.0355,1.67609 -1.21017,2.01695 -3.20653,0.46632 -6.43364,0.73498 -9.68133,0.80679 -0.80919,0.0335 -1.21258,0.23517 -1.21017,0.60507 -1.92335,1.04921 -2.05808,2.32675 -0.40337,3.83219 0.64016,0.34771 1.31261,0.61678 2.01695,0.80678 2.28599,0.13432 4.57159,0.26907 6.85759,0.40339 3.25011,1.80314 4.39291,4.55951 3.4288,8.26947 -0.45985,2.07342 -1.73697,3.35096 -3.83218,3.83219 -5.17023,1.47519 -10.27996,1.34087 -15.32879,-0.40339 -11.45986,-5.97056 -20.93949,-14.24002 -28.43889,-24.80841 -0.48488,-1.32069 -0.88827,-2.66519 -1.21017,-4.03389 -0.60428,-4.56353 -1.07504,-9.13514 -1.41186,-13.71521 -4.33481,-0.76926 -7.6293,-3.05528 -9.88302,-6.85762 -3.05648,-5.23436 -4.60307,-10.88181 -4.63897,-16.94233 1.42192,-0.062 2.56514,0.47561 3.4288,1.61358 1.57684,2.97901 2.92134,6.0714 4.03388,9.27792 1.7963,1.92982 3.67891,2.06455 5.64746,0.4034 0.66154,-1.56999 1.19925,-3.18355 1.61354,-4.84066 0.20936,-0.40985 0.54578,-0.67851 1.00848,-0.80678 7.82089,4.98427 16.29206,8.41307 25.41349,10.2864 4.58048,0.60146 9.01775,0.0637 13.31184,-1.61355 3.13956,-1.23357 6.23235,-2.57847 9.27792,-4.03388 1.70352,-0.31748 2.57726,0.42234 2.62205,2.21864 0.97095,5.47841 1.37433,10.99152 1.21016,16.53893 -0.36427,0.48448 -0.83462,0.8209 -1.41187,1.00847 -5.01413,0.23559 -9.72046,-0.90722 -14.1186,-3.4288 -2.34208,1.48125 -2.61115,3.2965 -0.80678,5.44575 3.71076,2.22953 7.07221,4.91852 10.08471,8.06777 -5.56515,0.382 -11.07827,1.12142 -16.53893,2.21864 z"
       id="path91" />
    <path
       style="clip-rule:evenodd;fill-rule:evenodd;stroke-width:0.403388;image-rendering:optimizeQuality;shape-rendering:geometricPrecision;text-rendering:geometricPrecision"
       fill="#d07e52"
       d="m 344.94293,170.00643 c 2.83664,-0.1331 5.66035,0.001 8.47117,0.40339 -1.07099,4.83057 -3.02057,9.26786 -5.84914,13.31183 -1.95845,-4.35498 -2.8326,-8.927 -2.62203,-13.71522 z"
       id="path92" />
    <path
       style="clip-rule:evenodd;fill-rule:evenodd;stroke-width:0.403388;image-rendering:optimizeQuality;shape-rendering:geometricPrecision;text-rendering:geometricPrecision"
       fill="#1b2426"
       d="m 260.93756,115.75132 c 3.36145,0 6.72328,0 10.08473,0 -0.23519,1.54781 -0.50425,3.09399 -0.80678,4.63898 0.0912,1.215 0.42717,2.3578 1.00847,3.4288 2.97378,3.20411 6.53691,5.55749 10.6898,7.05929 17.94676,6.0448 36.36833,8.19646 55.26426,6.45424 7.54014,-0.27069 14.19606,-2.75798 19.96775,-7.4627 2.03752,-3.45098 2.37394,-7.08149 1.00847,-10.89149 7.34329,1.43524 13.86488,4.52802 19.56436,9.27793 1.45703,2.08229 1.99516,4.36831 1.61355,6.85761 -0.35619,1.04963 -0.96128,1.92377 -1.81524,2.62203 -2.61558,2.18273 -5.43931,4.06535 -8.47116,5.64745 -7.78985,3.01048 -15.85763,4.8931 -24.20333,5.64743 -24.90806,2.66479 -49.24572,0.10978 -73.01339,-7.66438 -8.31989,-2.44131 -15.51393,-6.67689 -21.58129,-12.70675 -1.17185,-2.30174 -1.57523,-4.72207 -1.21016,-7.26099 3.28236,-3.39856 7.24929,-5.28117 11.89996,-5.64745 z"
       id="path93" />
    <path
       style="clip-rule:evenodd;fill-rule:evenodd;stroke-width:0.403388;image-rendering:optimizeQuality;shape-rendering:geometricPrecision;text-rendering:geometricPrecision"
       fill="#1a2224"
       d="m 291.19172,74.202281 c 1.48527,-0.06662 2.96409,4.12e-4 4.43727,0.201692 6.12062,2.085115 12.30579,3.967333 18.55589,5.647448 4.50263,1.20169 9.07422,1.605074 13.71521,1.210166 4.87819,-0.840674 9.71885,-1.849133 14.522,-3.025408 0.91771,0.442902 1.50514,1.152643 2.33534,1.785162 0.41911,0.906005 1.16686,1.273773 1.69856,2.450412 -2.36492,2.377171 -18.16086,12.762679 -45.58295,2.622025 -0.65509,0.552233 -0.85678,1.224681 -0.60507,2.016935 1.47237,2.143216 3.08593,4.160156 4.84067,6.050831 0.58127,1.071002 0.9173,2.213803 1.00846,3.428806 -1.08914,5.52441 -2.50101,10.97017 -4.23558,16.33726 -0.36022,0.23436 -0.76362,0.36909 -1.21017,0.40338 -7.92417,-1.22873 -15.65591,-3.24567 -23.19485,-6.05083 -0.13432,-0.33603 -0.26906,-0.67246 -0.4034,-1.00847 2.20856,-7.692232 4.69626,-15.289257 7.4627,-22.791477 1.24929,-3.864055 3.46793,-6.956837 6.65592,-9.277932 z"
       id="path94"
       sodipodi:nodetypes="ccccccccccccccccc" />
  </g>
</svg>
