<?xml version="1.0" encoding="UTF-8" standalone="no"?>
<!-- Created with Inkscape (http://www.inkscape.org/) -->

<svg
   width="210mm"
   height="297mm"
   viewBox="0 0 210 297"
   version="1.1"
   id="svg1"
   xml:space="preserve"
   inkscape:version="1.4.2 (ebf0e940d0, 2025-05-08)"
   sodipodi:docname="dead.svg"
   xmlns:inkscape="http://www.inkscape.org/namespaces/inkscape"
   xmlns:sodipodi="http://sodipodi.sourceforge.net/DTD/sodipodi-0.dtd"
   xmlns="http://www.w3.org/2000/svg"
   xmlns:svg="http://www.w3.org/2000/svg"><sodipodi:namedview
     id="namedview1"
     pagecolor="#ffffff"
     bordercolor="#000000"
     borderopacity="0.25"
     inkscape:showpageshadow="2"
     inkscape:pageopacity="0.0"
     inkscape:pagecheckerboard="0"
     inkscape:deskcolor="#d1d1d1"
     inkscape:document-units="mm"
     inkscape:zoom="1.5270577"
     inkscape:cx="299.59575"
     inkscape:cy="137.19193"
     inkscape:window-width="1920"
     inkscape:window-height="1008"
     inkscape:window-x="0"
     inkscape:window-y="0"
     inkscape:window-maximized="1"
     inkscape:current-layer="g3" /><defs
     id="defs1" /><g
     inkscape:label="Слой 1"
     inkscape:groupmode="layer"
     id="layer1"><g
       id="g3"
       transform="translate(-20.645153,-32.017483)"><path
         style="fill:#c1c1c1"
         d="m 21.240463,50.621713 c -0.32742,-0.13173 -0.59531,-0.36702 -0.59531,-0.52287 0,-0.15584 0.44648,-0.7517 0.99218,-1.32413 0.54571,-0.57243 1.69682,-1.43103 2.55804,-1.90799 0.86122,-0.47696 1.61756,-1.02286 1.68076,-1.21311 0.0632,-0.19025 -0.34638,-0.78556 -0.91016,-1.32292 -0.56379,-0.53735 -1.21949,-1.39372 -1.45711,-1.90304 -0.23762,-0.50933 -0.62198,-1.38707 -0.85413,-1.95055 -0.23215,-0.56347 -0.42092,-1.39691 -0.4195,-1.85208 10e-4,-0.45517 0.2985,-1.46323 0.66017,-2.24014 0.36168,-0.77691 0.90674,-1.76246 1.21126,-2.19012 0.30453,-0.42766 1.16831,-1.0925 1.91952,-1.47742 l 1.36584,-0.69986 2.11667,0.0638 2.11666,0.0637 1.19114,0.76117 c 0.65513,0.41865 1.3837,1.09514 1.61905,1.50332 0.23535,0.40817 0.63599,1.38031 0.89031,2.16031 l 0.46241,1.41817 -0.13277,0.96308 c -0.073,0.52969 -0.3336,1.64795 -0.57905,2.48502 l -0.44627,1.52195 -1.17168,1.37265 c -0.64442,0.75496 -1.17168,1.47587 -1.17168,1.60201 0,0.12614 0.80367,0.58978 1.78594,1.0303 l 1.78594,0.80096 0.85989,1.06464 c 0.47295,0.58555 0.8599,1.23036 0.8599,1.43291 v 0.36826 h -7.51899 c -4.13544,0 -7.67755,0.0521 -7.87135,0.11575 -0.1938,0.0637 -0.62026,0.008 -0.94768,-0.12377 z"
         id="path4"
         sodipodi:nodetypes="sssssssscssscccssscsscssscsscsss" /><path
         style="fill:#262626"
         d="m 27.624863,43.101773 c -0.0811,-0.21131 -0.0808,-0.49197 5.7e-4,-0.62369 0.0814,-0.13171 0.75053,-0.31084 1.48694,-0.39806 0.73642,-0.0872 1.5138,-0.0915 1.72752,-0.009 0.21373,0.082 0.38859,0.36177 0.38859,0.62167 0,0.2599 -0.18833,0.54482 -0.41851,0.63315 -0.23019,0.0883 -1.00783,0.1606 -1.7281,0.1606 h -1.30958 z m -2.39957,-3.4873 c -0.0912,-0.23756 -0.0289,-0.65098 0.13827,-0.91871 l 0.37422,-0.37454 0.10442,-0.32182 -0.47579,-0.45138 -0.30115,-0.66095 0.34142,-0.41139 0.34142,-0.41138 0.4938,0.44688 0.56366,0.60405 0.59438,-0.51266 0.66423,-0.35548 0.30498,0.30497 0.30498,0.30498 -0.28224,0.61943 -0.56165,0.54957 0.30652,0.56509 c 0.13888,0.25603 0.41943,0.61345 0.33295,0.8388 l -0.15723,0.40972 -0.72797,-0.11694 -0.50901,-0.43298 -0.56825,0.21126 -0.16853,0.2727 c -0.0927,0.14999 -0.34385,0.27271 -0.55811,0.27271 -0.21426,0 -0.46415,-0.19437 -0.55531,-0.43193 z m 6.36177,0.24199 -0.79325,-0.0895 -0.41136,-0.48078 0.24797,-0.53426 0.63099,-0.68841 -0.74078,-1.51061 0.6575,-0.23612 0.7953,0.98177 0.54608,-0.42602 0.15673,-0.2536 c 0.0862,-0.13948 0.31555,-0.19266 0.50965,-0.11818 l 0.51488,0.20742 -0.28266,0.84351 -0.66139,0.4997 0.37759,0.54413 0.51794,0.4815 0.1491,0.43401 -0.72083,0.42183 c -0.21828,0.0143 -0.42244,-1.17191 -1.02558,-1.22821 z"
         id="path3"
         sodipodi:nodetypes="csscssscccsccccccccccccccssccccssscccccccccsscccccccccc" /></g></g></svg>
